<svg version="1.1" id="Layer_1" xmlns="http://www.w3.org/2000/svg" xmlns:xlink="http://www.w3.org/1999/xlink" x="0px" y="0px"
	 width="100%" viewBox="0 0 1600 1600" enable-background="new 0 0 1600 1600" xml:space="preserve">
<path fill="#000000" opacity="1.000000" stroke="none" 
	d="
M948.000000,1601.000000 
	C633.500122,1601.000000 319.500183,1600.992188 5.500311,1601.093140 
	C1.751802,1601.094238 0.906443,1600.249878 0.907132,1596.500244 
	C1.004659,1066.167114 1.004597,535.833923 0.907324,5.500775 
	C0.906637,1.753600 1.748335,0.906354 5.499257,0.907044 
	C535.832397,1.004642 1066.165649,1.004618 1596.498779,0.907405 
	C1600.244751,0.906719 1601.093628,1.746698 1601.093018,5.498780 
	C1600.995239,535.831909 1600.995361,1066.165161 1601.092529,1596.498291 
	C1601.093140,1600.243164 1600.255249,1601.095703 1596.501709,1601.093872 
	C1380.501099,1600.988647 1164.500610,1601.000000 948.000000,1601.000000 
z"/>
<path fill="#7A5520" opacity="1.000000" stroke="none" 
	d="
M1345.691406,953.609497 
	C1338.128662,972.651855 1328.806030,990.264282 1316.353882,1006.118164 
	C1315.307495,1007.450195 1314.518677,1008.847473 1314.013916,1010.443359 
	C1302.531372,1046.742065 1288.407593,1081.926392 1271.161499,1115.926270 
	C1255.064331,1147.660889 1236.487793,1177.763184 1215.246338,1206.262207 
	C1202.598389,1223.231567 1188.971069,1239.356445 1174.713989,1255.022705 
	C1161.824463,1269.186157 1148.309570,1282.695435 1134.004761,1295.318481 
	C1107.100464,1319.059448 1078.242310,1340.182251 1047.049561,1358.114014 
	C1028.382202,1368.845215 1009.286377,1378.657227 989.508606,1387.060303 
	C968.701904,1395.900513 947.295654,1403.108276 925.446472,1409.050537 
	C911.109985,1412.949707 896.628235,1416.258179 882.026062,1418.637939 
	C869.846375,1420.622559 857.498657,1421.930786 845.183105,1423.252808 
	C823.429138,1425.587646 801.678894,1425.193237 779.944336,1424.813843 
	C763.961060,1424.534790 748.034119,1422.512573 732.134827,1420.322754 
	C710.832153,1417.388672 689.964478,1412.739380 669.298523,1407.005981 
	C652.593811,1402.371582 636.303528,1396.544067 620.192139,1390.123535 
	C582.386169,1375.057861 547.182434,1355.249268 513.975464,1331.894897 
	C499.409058,1321.650269 485.445770,1310.563110 472.063263,1298.731079 
	C460.356903,1288.381104 449.013062,1277.688477 438.069275,1266.556396 
	C417.748108,1245.885498 399.177094,1223.701294 382.159882,1200.272705 
	C365.174255,1176.887329 349.850342,1152.414795 336.367371,1126.813477 
	C318.784088,1093.426758 303.483154,1059.035522 292.300171,1022.983948 
	C288.840240,1011.829895 282.793610,1002.509644 276.496948,993.108643 
	C263.592194,973.841736 254.891922,952.743530 249.036896,930.397339 
	C244.580933,913.390808 242.630173,896.119690 241.786362,878.524170 
	C240.463150,850.931641 244.190201,824.122314 252.752304,798.126648 
	C255.961197,788.384094 256.417816,778.855103 257.216766,768.968079 
	C258.400452,754.319458 259.186859,739.636841 260.714386,724.994202 
	C262.737244,705.603516 265.648560,686.385742 269.081299,667.240173 
	C273.593353,642.074768 279.934540,617.322388 287.567352,592.924622 
	C298.630981,557.560547 312.282776,523.264404 328.831177,490.044769 
	C345.371857,456.840729 364.677277,425.447937 386.770294,395.710114 
	C399.393921,378.718323 413.046600,362.617554 427.309357,346.957001 
	C440.203735,332.798981 453.736481,319.314178 468.015167,306.656464 
	C494.751587,282.955261 523.557129,262.015961 554.538025,244.081406 
	C573.311523,233.213654 592.578491,223.350296 612.526123,214.919312 
	C633.346252,206.119553 654.708496,198.794952 676.588623,192.933960 
	C690.938293,189.090149 705.409790,185.742371 720.011353,183.356720 
	C732.190491,181.366852 744.538635,180.063095 756.855225,178.745911 
	C778.276672,176.455002 799.690247,176.841644 821.095398,177.164108 
	C837.423096,177.410080 853.673462,179.466446 869.903748,181.689651 
	C891.208435,184.607941 912.079102,189.251495 932.740112,195.001678 
	C949.439636,199.649353 965.736267,205.461914 981.847290,211.886536 
	C1019.648926,226.960770 1054.850586,246.773209 1088.059326,270.120392 
	C1102.626709,280.361786 1116.541260,291.510956 1129.974609,303.281708 
	C1142.109497,313.914764 1153.770142,325.002960 1164.986328,336.560486 
	C1177.199341,349.145233 1188.588135,362.455139 1199.784912,375.975616 
	C1213.817261,392.920197 1226.426147,410.836426 1238.581787,429.096313 
	C1249.657593,445.734161 1259.783691,463.012909 1268.806396,480.812714 
	C1287.052368,516.808044 1302.608154,553.964600 1314.348022,592.652283 
	C1323.693115,623.448364 1331.250977,654.629517 1336.161377,686.469177 
	C1338.577026,702.132812 1340.699097,717.800964 1342.072876,733.590454 
	C1343.508667,750.093384 1344.931030,766.582520 1345.047119,783.166321 
	C1345.095581,790.099426 1349.084351,795.987976 1350.853638,802.500671 
	C1355.977905,821.363647 1359.342529,840.373535 1360.206543,860.004272 
	C1361.151611,881.475891 1359.160400,902.550354 1354.834229,923.444031 
	C1352.732910,933.592712 1349.426758,943.489380 1345.691406,953.609497 
z"/>
<path fill="#000000" opacity="1.000000" stroke="none" 
	d="
M1167.250732,1188.255249 
	C1161.518066,1195.323242 1156.360596,1202.427734 1150.483276,1208.876221 
	C1139.415283,1221.019409 1128.815552,1233.634033 1116.684814,1244.762695 
	C1098.052734,1261.855835 1079.022705,1278.491455 1058.185913,1292.909180 
	C1036.835083,1307.682617 1014.673889,1321.073608 991.259399,1332.375000 
	C955.995178,1349.395874 919.267395,1361.944336 880.725525,1369.029297 
	C865.143188,1371.893555 849.421082,1373.606812 833.659302,1375.258423 
	C822.895203,1376.386597 812.037170,1376.601440 801.423462,1376.512817 
	C787.124207,1376.393311 772.687500,1376.169922 758.316162,1374.317871 
	C742.604492,1372.293335 726.923462,1370.332520 711.424072,1367.050293 
	C687.815857,1362.050781 664.798828,1355.162720 642.358826,1346.209595 
	C627.593384,1340.318359 613.159241,1333.766846 599.050476,1326.493774 
	C573.606384,1313.377686 549.608459,1297.953735 526.980591,1280.432373 
	C514.559387,1270.814209 502.837433,1260.378906 491.165192,1249.848267 
	C472.518616,1233.025513 456.304413,1214.088501 440.220520,1194.911377 
	C420.941681,1171.925049 404.383820,1147.094360 389.287048,1121.313721 
	C372.559906,1092.748657 358.586487,1062.783325 347.058136,1031.718750 
	C344.016418,1023.522461 341.059845,1015.294067 338.132507,1007.056091 
	C337.358643,1004.878418 336.775085,1002.644287 336.980896,1000.251831 
	C337.394867,995.440552 335.780701,991.339783 333.213226,987.216675 
	C328.250305,979.246582 327.362701,969.827637 325.050629,960.950928 
	C318.603912,936.199890 313.949280,911.097900 310.935425,885.692017 
	C309.183228,870.921570 307.955353,856.111694 306.695984,841.294189 
	C305.639496,828.863953 307.015198,816.434570 305.180847,804.027954 
	C303.836670,794.936646 309.551666,787.659424 314.141663,780.477905 
	C319.601135,771.936157 323.097992,763.236877 320.037750,752.930725 
	C318.908783,749.128723 317.075165,745.358276 313.864227,743.645386 
	C307.763092,740.390869 308.583069,735.284546 309.083740,730.239258 
	C311.429901,706.597229 315.590942,683.215698 320.280579,659.959229 
	C323.013092,646.408447 326.867493,633.061218 330.679504,619.754944 
	C342.219482,579.473267 357.376190,540.591492 376.859375,503.466003 
	C393.540131,471.680481 412.556824,441.382568 435.085327,413.353149 
	C445.033600,400.975830 455.523987,389.090912 466.040466,377.195038 
	C478.407928,363.205322 492.151520,350.732483 506.142822,338.559692 
	C531.350464,316.628418 558.690491,297.644043 587.990540,281.462341 
	C615.433838,266.306122 644.017700,253.872498 673.935852,244.607285 
	C693.150391,238.656876 712.698608,233.982483 732.627686,230.936707 
	C752.781738,227.856522 772.984680,226.126617 793.400879,225.816544 
	C808.804443,225.582611 824.183777,225.708237 839.461792,227.145493 
	C881.394775,231.090240 922.021362,240.557785 961.167175,256.473206 
	C990.517761,268.406219 1018.423218,282.832031 1044.906250,300.225494 
	C1061.498535,311.122864 1077.255737,323.005707 1092.392822,335.815613 
	C1105.573730,346.969971 1118.582764,358.321075 1130.322754,370.965118 
	C1143.920776,385.610352 1157.001099,400.708374 1169.361572,416.470184 
	C1185.295044,436.788147 1199.574463,458.183075 1212.545532,480.417328 
	C1224.960205,501.697693 1235.816772,523.807556 1245.403687,546.561279 
	C1252.719116,563.923828 1259.246704,581.552490 1265.127197,599.414429 
	C1274.053101,626.526917 1280.892822,654.199524 1285.976196,682.293091 
	C1289.237793,700.317505 1291.770508,718.440002 1293.441650,736.691406 
	C1293.670776,739.192078 1292.510864,739.899048 1291.085693,740.947144 
	C1279.882324,749.186157 1277.528076,762.324585 1284.525757,774.329163 
	C1288.668335,781.436157 1293.158081,788.391846 1296.126709,796.173035 
	C1297.264893,799.156250 1297.402954,802.186340 1296.815430,804.972412 
	C1295.870728,809.453247 1296.018311,813.893494 1296.017578,818.359619 
	C1296.014526,837.595642 1294.110962,856.676086 1292.177368,875.800354 
	C1288.566040,911.521729 1281.098999,946.432373 1271.875000,981.035950 
	C1271.186890,983.617798 1269.979858,986.002319 1268.313110,988.033813 
	C1266.553223,990.178894 1265.202759,992.772095 1265.226318,995.209106 
	C1265.357422,1008.768066 1258.881226,1020.418457 1254.516235,1032.573364 
	C1246.411865,1055.141235 1236.503662,1076.991089 1225.332275,1098.225830 
	C1209.471680,1128.373657 1191.573608,1157.236084 1170.466431,1184.038452 
	C1169.446899,1185.333008 1168.488037,1186.675415 1167.250732,1188.255249 
z"/>
<path fill="#7A5520" opacity="1.000000" stroke="none" 
	d="
M878.071167,1243.024048 
	C865.619385,1246.030273 853.354614,1247.488037 841.088257,1249.109863 
	C823.709839,1251.407593 806.288757,1250.934692 788.862671,1250.992920 
	C771.438293,1251.050903 754.225647,1248.709229 737.116516,1245.804321 
	C717.243652,1242.430054 697.870972,1236.981567 678.933228,1230.070679 
	C646.889893,1218.377075 617.331970,1202.280884 590.428955,1181.149048 
	C576.251526,1170.012939 563.326477,1157.605591 551.198120,1144.447388 
	C536.747437,1128.769531 524.650879,1111.231567 514.197021,1092.578125 
	C503.080536,1072.742310 494.362305,1051.911743 487.637146,1030.232666 
	C482.159210,1012.573975 478.202789,994.593018 475.864899,976.213867 
	C474.444031,965.043762 472.784729,953.941895 472.978821,942.640015 
	C473.170563,931.474548 483.498749,921.328430 494.679901,920.935303 
	C506.040680,920.535767 516.449890,924.724915 527.141968,927.287842 
	C552.149231,933.282166 577.275085,938.639465 602.614502,942.954285 
	C621.619385,946.190430 640.636658,949.532959 659.772522,951.763672 
	C674.522156,953.483093 689.296143,955.212769 704.158203,956.180603 
	C719.849060,957.202393 735.522705,958.386719 751.228821,959.265503 
	C760.369324,959.776978 769.481262,959.702087 778.602173,959.974182 
	C785.229614,960.171814 792.023804,961.190063 798.430786,960.677551 
	C815.679871,959.297974 832.967773,961.133850 850.182190,959.147766 
	C857.565247,958.295898 865.070496,958.696472 872.537903,958.148132 
	C890.831177,956.805054 909.072998,955.083191 927.324219,953.269836 
	C943.763428,951.636597 960.064941,949.152405 976.401062,946.891907 
	C988.631409,945.199646 1000.752930,942.708557 1012.910339,940.503845 
	C1041.790771,935.266541 1070.255981,928.202393 1098.808105,921.459167 
	C1112.343872,918.262390 1123.148193,923.592102 1128.519043,938.155273 
	C1129.015869,939.502197 1128.977661,941.091370 1128.980713,942.568542 
	C1129.015381,959.661194 1126.486572,976.468262 1123.426392,993.230835 
	C1119.171875,1016.534119 1112.219604,1038.981445 1103.192993,1060.878784 
	C1093.306641,1084.861572 1080.190552,1106.905029 1064.808472,1127.692383 
	C1053.691650,1142.715820 1040.496826,1155.888306 1026.820923,1168.435425 
	C1011.001465,1182.949341 993.495178,1195.382446 974.799194,1206.098145 
	C944.597534,1223.408691 912.425598,1235.475098 878.071167,1243.024048 
z"/>
<path fill="#C99723" opacity="1.000000" stroke="none" 
	d="
M709.000000,455.000000 
	C709.000000,396.511536 709.195129,338.521790 708.807739,280.535919 
	C708.743225,270.883850 718.396729,260.605469 729.236206,260.627014 
	C738.915710,260.646271 749.292358,271.091522 749.233276,280.742157 
	C748.800720,351.392090 749.090454,422.046112 748.948120,492.698425 
	C748.901855,515.687195 758.829895,532.620728 778.676575,543.760498 
	C782.138306,545.703613 786.462891,547.497925 790.170227,547.133850 
	C792.702148,546.885254 793.402832,541.940491 794.930603,539.108154 
	C796.771484,535.695801 798.269409,532.096985 801.230530,528.399963 
	C804.161682,533.919556 807.208313,538.862976 809.438416,544.150757 
	C810.796387,547.370667 812.767517,547.746887 815.312805,546.861206 
	C825.939758,543.163452 834.917419,537.050110 841.961487,528.180969 
	C850.316101,517.661560 852.962280,505.359497 852.972839,492.341736 
	C853.029968,421.689209 853.115173,351.036133 852.858459,280.384491 
	C852.825317,271.260315 860.304199,262.524445 868.393799,261.068207 
	C879.412048,259.084778 888.929382,264.728882 892.299072,274.581573 
	C892.989258,276.599762 892.967163,278.464966 892.968140,280.391541 
	C893.005798,353.876862 893.073975,427.362366 892.950195,500.847504 
	C892.917480,520.278992 886.346863,537.634521 874.508606,552.965393 
	C862.562317,568.435974 847.396362,579.403687 828.603760,585.154419 
	C826.468384,585.807800 825.429016,586.940430 825.961060,589.434570 
	C828.622559,601.912537 829.291077,614.543091 829.056458,627.289612 
	C828.741699,644.393677 824.441101,660.587830 817.824036,676.121704 
	C813.869141,685.406311 809.156799,694.425354 803.166260,702.704773 
	C801.311646,705.268005 800.808960,705.651245 798.879639,702.814392 
	C786.420227,684.494202 777.504700,664.570068 774.263245,642.700928 
	C771.797913,626.068420 771.717163,609.161682 775.713928,592.522217 
	C776.551270,589.036194 777.095398,586.274170 771.663330,584.627930 
	C755.462402,579.718384 741.914856,570.123474 730.924011,557.304138 
	C719.563477,544.053711 712.040894,528.876953 709.982300,511.284027 
	C707.809814,492.717896 709.595947,474.089539 709.000000,455.000000 
z"/>
<path fill="#7A5520" opacity="1.000000" stroke="none" 
	d="
M650.752441,728.794067 
	C643.392944,726.787720 638.727051,721.752625 634.317749,716.593689 
	C623.135742,703.510620 610.765076,692.039246 594.613647,685.264404 
	C579.777954,679.041504 565.529358,680.995544 551.974487,688.703186 
	C539.045044,696.055054 528.185913,705.949219 518.895020,717.586365 
	C511.331146,727.060425 501.738770,731.740051 489.605865,728.183594 
	C471.779236,722.958130 468.019165,701.227295 478.079315,689.538818 
	C491.512299,673.931763 505.803558,659.209290 523.753540,648.575806 
	C539.494507,639.250854 556.064209,633.287415 574.706116,632.868530 
	C603.175659,632.228760 626.625183,643.681274 647.790100,661.314026 
	C658.900574,670.570251 669.352173,680.563904 677.744324,692.379639 
	C682.976074,699.745728 682.644775,708.344055 678.769958,716.011902 
	C674.710144,724.045898 668.010986,729.394165 658.161804,729.008484 
	C655.832275,728.917236 653.498535,728.933411 650.752441,728.794067 
z"/>
<path fill="#7A5520" opacity="1.000000" stroke="none" 
	d="
M984.022583,700.009644 
	C975.687683,706.925781 969.267395,715.261963 961.832397,722.599854 
	C948.961060,735.303162 925.989380,729.331482 921.625183,711.899536 
	C919.474731,703.309448 920.862610,695.129761 927.359436,687.899719 
	C934.479004,679.976685 941.748840,672.192078 949.602478,665.078247 
	C967.923462,648.483215 988.827942,636.222961 1013.743286,633.242188 
	C1035.344360,630.657898 1055.915161,635.386108 1074.796875,646.412048 
	C1094.929565,658.168518 1111.660400,673.860657 1125.672852,692.338928 
	C1131.107666,699.505859 1130.641846,708.241455 1126.806274,715.924622 
	C1122.784058,723.981750 1116.067139,728.628967 1106.286133,729.190186 
	C1095.356934,729.817200 1088.554199,723.944580 1082.296631,716.595642 
	C1071.146729,703.501221 1058.769531,692.055359 1042.633911,685.271667 
	C1028.189453,679.199036 1014.277710,681.056335 1000.858521,688.150024 
	C994.889282,691.305603 989.299805,695.193420 984.022583,700.009644 
z"/>
<path fill="#7A5520" opacity="1.000000" stroke="none" 
	d="
M376.997742,799.214966 
	C377.692230,806.094910 375.707214,811.576477 371.868164,816.777832 
	C364.558136,826.681885 360.671234,837.763062 359.791443,850.246948 
	C358.673889,866.104858 361.687561,880.634827 370.025482,894.163757 
	C373.285309,899.453064 378.532135,902.994507 381.780060,908.239929 
	C386.547211,915.939026 386.631989,924.242432 382.816620,931.920410 
	C378.808807,939.985535 372.054413,944.533142 362.289642,945.204285 
	C350.125763,946.040283 343.273590,938.549988 336.545593,930.802856 
	C326.324677,919.033752 319.539642,905.230164 315.254700,890.317200 
	C310.581970,874.054504 309.943817,857.452332 311.834290,840.641235 
	C313.426605,826.482117 317.533813,813.147888 324.218719,800.685913 
	C328.170837,793.318542 332.160004,785.820862 339.412842,780.812744 
	C353.834381,770.854431 376.158447,779.694214 376.997742,799.214966 
z"/>
<path fill="#7A5520" opacity="1.000000" stroke="none" 
	d="
M1265.731934,783.233643 
	C1278.285400,797.324524 1285.400391,813.794189 1288.822876,831.668030 
	C1294.339233,860.476074 1291.091309,888.341980 1276.798706,914.329102 
	C1270.959839,924.945435 1263.849854,934.812744 1253.654419,941.762146 
	C1246.183472,946.854370 1237.680542,946.634827 1230.023071,942.792664 
	C1221.992676,938.763367 1217.086914,932.059387 1216.855591,922.237915 
	C1216.664917,914.142456 1219.387939,907.929260 1225.046021,902.351440 
	C1235.875854,891.675537 1240.612427,878.343872 1242.154297,863.341980 
	C1243.405273,851.170105 1241.395630,839.824402 1237.069946,828.587036 
	C1234.951416,823.083496 1231.214844,818.663879 1228.182251,813.777954 
	C1223.356567,806.003418 1223.584473,797.692932 1227.229370,790.080811 
	C1231.114014,781.967896 1237.912598,776.892883 1247.741089,776.920898 
	C1254.456787,776.940063 1260.529297,778.125854 1265.731934,783.233643 
z"/>
<path fill="#7A5520" opacity="1.000000" stroke="none" 
	d="
M747.732422,817.001221 
	C753.348145,817.274048 757.742676,819.185730 761.416870,822.891968 
	C769.032349,830.573914 777.318665,837.445923 787.400452,841.622620 
	C801.663452,847.531738 814.518921,843.560120 826.354675,835.015198 
	C831.705627,831.152100 836.599731,826.690979 841.477783,822.197327 
	C849.002747,815.265381 858.264099,815.221436 867.050659,818.780518 
	C875.530029,822.215149 880.114319,829.034729 881.149902,838.660217 
	C882.595947,852.100525 873.841309,859.367798 865.376831,866.748535 
	C858.176025,873.027405 850.206970,878.369934 841.703857,882.864441 
	C830.925781,888.561523 819.556824,892.141418 807.370972,892.997192 
	C792.202759,894.062500 777.616638,891.510742 764.002380,884.824341 
	C749.028137,877.470093 735.372498,867.901428 724.847717,854.926575 
	C718.834717,847.513733 719.105591,837.923401 723.403442,829.497498 
	C727.348022,821.764343 733.916382,816.805542 743.283142,816.996399 
	C744.614990,817.023499 745.947937,817.000183 747.732422,817.001221 
z"/>
<path fill="#7A5520" opacity="1.000000" stroke="none" 
	d="
M1125.496704,806.791870 
	C1108.524414,797.385925 1109.391479,773.079102 1123.348267,764.697754 
	C1129.702393,760.881958 1135.198975,755.707520 1140.322632,750.227234 
	C1147.491333,742.560059 1149.937988,733.820618 1146.820435,723.722534 
	C1143.533813,713.076660 1143.738647,703.330078 1152.491455,694.919006 
	C1163.598633,684.245422 1184.775879,687.692871 1190.883057,701.958130 
	C1199.869019,722.948120 1199.965088,744.208008 1189.546631,764.762268 
	C1180.247192,783.108887 1165.317017,796.403015 1147.960449,806.838562 
	C1141.088135,810.970459 1133.243652,809.605774 1125.496704,806.791870 
z"/>
<path fill="#7A5520" opacity="1.000000" stroke="none" 
	d="
M411.234863,701.430786 
	C417.377930,691.477783 426.069550,687.537903 437.171204,689.082153 
	C447.254669,690.484680 453.602936,696.685486 456.395142,706.090759 
	C458.103729,711.845886 457.123108,717.845947 455.243195,723.673828 
	C451.931976,733.938843 454.714294,742.683228 461.942291,750.568665 
	C468.274384,757.476562 476.398224,762.161621 483.050568,768.601440 
	C488.974457,774.335876 491.360474,786.628967 487.626923,794.547546 
	C483.572693,803.146484 477.020813,808.413513 466.895691,809.134766 
	C458.579376,809.727234 452.303070,806.220337 446.012726,801.654663 
	C432.485352,791.836426 420.649811,780.459229 412.871674,765.489441 
	C402.024872,744.613892 402.423828,723.270264 411.234863,701.430786 
z"/>
<path fill="#000000" opacity="1.000000" stroke="none" 
	d="
M970.057739,1051.007935 
	C981.842957,1048.902466 993.193176,1046.846436 1004.525452,1044.695679 
	C1022.498779,1041.284668 1040.245483,1036.867554 1057.994995,1032.473389 
	C1059.166138,1032.183594 1060.403564,1031.668945 1061.291748,1032.502075 
	C1062.417480,1033.557983 1061.100708,1034.647217 1060.713623,1035.598877 
	C1050.697144,1060.223755 1037.857788,1083.134277 1020.905151,1103.791016 
	C1006.615906,1121.202393 990.268677,1136.220459 972.185791,1149.509399 
	C969.324524,1151.612183 967.591492,1152.233521 965.780762,1148.375122 
	C963.751404,1144.050659 959.970276,1141.204590 955.841003,1138.961670 
	C925.360352,1122.403931 893.441711,1109.459106 859.418945,1102.417847 
	C843.596558,1099.143066 827.538208,1096.795898 811.232483,1096.923218 
	C804.500793,1096.975708 797.773438,1096.768555 791.025208,1096.889160 
	C767.239807,1097.314453 744.130676,1101.560669 721.264282,1107.799805 
	C701.758362,1113.121704 683.135559,1120.737549 664.902893,1129.269165 
	C658.494568,1132.267822 652.184326,1135.642456 645.935547,1139.045898 
	C641.469727,1141.478394 637.848694,1144.924438 635.416260,1149.338745 
	C633.998840,1151.911133 632.682129,1151.658203 630.808716,1150.262695 
	C615.118469,1138.573975 600.291992,1126.010986 587.399963,1111.128784 
	C576.322937,1098.341675 566.125244,1084.988770 557.916504,1070.243408 
	C551.182068,1058.146362 544.724854,1045.848633 540.031189,1032.144409 
	C546.761414,1032.452515 552.650513,1034.677246 558.636414,1036.147461 
	C582.007263,1041.887207 605.583923,1046.691406 629.276062,1050.751221 
	C649.415833,1054.202515 669.658264,1057.212036 690.044312,1059.092651 
	C705.841980,1060.550171 721.640259,1061.923340 737.454224,1063.199341 
	C770.187683,1065.840454 802.944763,1065.237427 835.670715,1064.739502 
	C853.637878,1064.466309 871.660278,1063.100952 889.623413,1061.284058 
	C903.422119,1059.888428 917.247009,1058.634399 931.006470,1056.910034 
	C943.919373,1055.291870 956.748596,1053.006714 970.057739,1051.007935 
z"/>
<path fill="#000000" opacity="1.000000" stroke="none" 
	d="
M733.172119,1184.934082 
	C721.539917,1180.178345 710.372009,1175.347656 700.047852,1167.434692 
	C724.564819,1156.486572 749.719849,1149.760864 775.853699,1147.084106 
	C819.464050,1142.616943 861.320190,1149.674316 901.437744,1167.932739 
	C848.220886,1200.389526 792.103760,1204.384277 733.172119,1184.934082 
z"/>
<path fill="#000000" opacity="1.000000" stroke="none" 
	d="
M788.865112,1015.998047 
	C709.338806,1015.929077 631.874634,1004.148804 555.431396,984.397705 
	C719.186646,1017.721375 882.899658,1017.750366 1046.628662,984.362122 
	C962.243103,1006.244446 876.643372,1018.002747 788.865112,1015.998047 
z"/>
</svg>